<svg xmlns="http://www.w3.org/2000/svg" fill-rule="evenodd" stroke-linejoin="round" stroke-miterlimit="2" clip-rule="evenodd" viewBox="0 0 5000 5000" id="tulip-flora">
  <g transform="translate(-2091.27 -4534.03)scale(21.9098)">
    <path fill="#8EAEBA" d="M190.03,246.506C189.705,245.747 189.457,244.93 189.286,244.417C188.732,242.773 188.359,240.963 188.256,239.145C188.154,237.312 188.324,235.472 188.87,233.784C189.164,232.871 189.598,231.926 190.233,231.179C190.681,230.652 191.226,230.221 191.889,229.959C193.005,229.513 194.175,229.691 195.278,230.203C196.308,230.681 197.279,231.455 198.071,232.236C198.077,232.049 198.512,231.665 198.552,231.618C198.746,231.389 198.966,231.186 199.207,231.009C199.436,230.84 199.681,230.692 199.933,230.563C200.795,230.123 201.769,229.837 202.76,229.729C203.754,229.621 204.765,229.688 205.697,229.954C207.508,230.465 209.118,231.484 210.485,232.781C211.83,234.058 212.943,235.603 213.761,237.204C215.267,240.067 216.101,243.178 216.422,246.356C216.48,246.927 216.522,247.501 216.547,248.075C216.564,248.058 216.579,248.042 216.592,248.027L217.469,247.178C217.827,246.857 218.194,246.547 218.568,246.244C219.123,245.796 219.692,245.364 220.267,244.94C221.754,243.839 223.386,242.867 225.118,242.196C226.875,241.516 228.734,241.144 230.657,241.266C231.718,241.33 232.857,241.583 233.912,242.02C234.984,242.465 235.969,243.1 236.705,243.926C237.168,244.439 237.731,245.111 238.054,245.965C238.131,245.969 238.213,245.963 238.297,245.952C238.837,245.879 239.447,245.659 239.973,245.646C240.737,245.628 241.507,245.671 242.274,245.757C243.029,245.841 243.781,245.966 244.518,246.112C245.224,246.252 245.923,246.422 246.603,246.646C247.296,246.874 247.97,247.156 248.609,247.523C250.289,248.486 251.837,249.904 252.21,251.481C252.47,252.582 252.207,253.779 251.019,254.982C250.786,255.221 250.536,255.443 250.276,255.652C249.896,255.957 249.493,256.234 249.085,256.5C245.995,258.541 241.585,259.82 238.272,262.117C237.233,262.837 236.307,263.663 235.58,264.654C235.771,264.61 235.961,264.567 236.152,264.526C239.495,263.793 242.899,263.353 246.252,263.307C249.185,263.253 252.36,263.663 255.091,264.9C256.957,265.745 258.615,266.975 259.862,268.701C260.495,269.575 261.079,270.637 261.38,271.745C261.593,272.53 261.661,273.339 261.519,274.127C261.181,276.006 259.696,277.043 258.092,277.208C257.146,277.305 256.163,277.091 255.35,276.568C255.585,277.455 255.609,278.388 255.349,279.199C255.053,280.125 254.402,280.905 253.286,281.315C252.55,281.587 251.777,281.764 250.986,281.89C250.962,281.954 250.937,282.01 250.931,282.031C250.879,282.221 250.818,282.409 250.747,282.593C250.678,282.774 250.601,282.952 250.517,283.126C250.349,283.474 250.162,283.81 249.959,284.137C249.663,284.614 249.336,285.072 248.999,285.522C248.34,286.404 247.6,287.177 246.8,287.878C245.617,288.912 244.303,289.789 242.925,290.625C240.881,291.874 238.781,293.023 236.74,294.27C235.393,295.092 234.073,295.959 232.806,296.912C229.804,299.203 227.262,301.754 224.265,303.511C222.222,304.709 219.971,305.545 217.232,305.699C216.364,305.748 215.477,305.768 214.608,305.667C214,305.596 213.402,305.465 212.822,305.249C212.618,305.171 212.474,305.004 212.417,304.809C212.326,304.826 212.236,304.841 212.145,304.855C210.609,305.088 209.037,304.891 207.502,304.042C207.298,303.928 207.176,303.723 207.158,303.505C207.091,303.47 207.039,303.425 206.998,303.375C206.05,303.655 205.033,303.781 203.909,303.729C203.462,303.709 203.009,303.673 202.56,303.612C202.313,303.578 202.067,303.537 201.824,303.486C202.6,304.897 203.54,306.06 204.217,307.486C204.552,308.191 204.828,308.955 204.997,309.834C205.453,312.184 205.447,314.553 205.172,316.91C205.159,317.018 205.146,317.126 205.132,317.234C205.692,315.833 206.097,314.36 206.344,312.86C206.811,310.019 206.707,307.082 206.011,304.352C205.922,303.99 206.143,303.624 206.505,303.535C206.866,303.445 207.232,303.667 207.322,304.029C208.014,306.938 208.077,310.058 207.535,313.065C207.03,315.869 206.002,318.577 204.471,320.924C204.002,323.02 203.404,325.088 202.818,327.104C202.069,329.711 201.273,332.303 200.468,334.892C199.263,338.772 198.027,342.642 196.785,346.513C196.079,348.733 195.414,350.964 194.86,353.22C194.309,355.466 193.867,357.737 193.593,360.046C193.565,360.279 193.54,360.512 193.516,360.746C193.495,361.195 193.477,361.644 193.461,362.093C193.494,361.948 193.527,361.802 193.561,361.657C194.599,357.237 196.288,352.951 198.567,348.662C200.036,345.895 201.76,343.231 203.79,340.845C205.833,338.444 208.186,336.324 210.905,334.662C213.625,332.997 216.539,331.758 219.247,330.137C220.378,329.459 221.473,328.714 222.5,327.839C223.11,327.319 223.681,326.761 224.225,326.177C224.774,325.588 225.296,324.974 225.803,324.346C225.879,324.251 226.825,323.014 227.225,322.541C227.32,322.43 227.393,322.353 227.431,322.32C227.732,322.06 228.003,322.252 228.072,322.314C228.196,322.425 228.308,322.674 228.259,323.015C228.2,323.426 227.929,324.092 227.883,324.23C227.628,325.001 227.331,325.754 227.004,326.494C226.677,327.23 226.32,327.953 225.942,328.666C224.395,331.584 222.527,334.351 220.46,336.966C218.398,339.573 216.138,342.028 213.794,344.326C210.195,347.858 206.553,351.263 203.446,355.109C201.403,357.637 199.593,360.358 198.18,363.434C196.879,366.266 195.889,369.246 195.253,372.298C194.618,375.345 194.337,378.463 194.452,381.578C194.482,382.381 194.539,383.187 194.616,383.992L194.831,385.254C194.907,384.621 194.995,383.989 195.097,383.355C195.464,381.079 196.011,378.782 196.872,376.385C198.417,372.072 200.795,368.352 203.555,364.902C207.647,359.787 212.585,355.269 216.863,350.268C217.683,349.308 218.464,348.319 219.213,347.306C219.965,346.291 220.685,345.253 221.383,344.199C221.474,344.062 222.138,342.844 222.497,342.448C222.763,342.153 223.059,342.157 223.193,342.208C223.441,342.303 223.704,342.686 223.796,343.289C223.884,343.325 223.974,343.375 224.064,343.443C224.456,343.737 224.97,344.463 225.059,344.594C225.569,345.352 225.98,346.182 226.306,347.045C226.627,347.895 226.865,348.778 227.037,349.655C227.672,352.879 227.858,356.256 227.568,359.586C227.277,362.92 226.509,366.208 225.224,369.246C223.696,372.874 221.329,375.834 218.477,378.289C215.786,380.604 212.661,382.472 209.386,384.003C203.411,392.349 197.052,400.672 194.122,408.56C194.094,408.81 194.061,409.06 194.022,409.308C193.993,409.799 193.943,410.334 193.851,410.729C193.793,410.98 193.702,411.186 193.598,411.345C193.609,411.414 193.621,411.483 193.632,411.551C193.691,411.919 193.439,412.265 193.071,412.323C193.054,412.326 193.037,412.328 193.02,412.329C192.852,412.42 192.648,412.439 192.457,412.366C192.368,412.332 192.291,412.281 192.227,412.218C191.908,412.108 191.723,411.788 191.808,411.472L191.808,411.462C191.892,411.127 191.985,410.791 192.084,410.454C191.654,408.047 191.028,405.61 190.2,403.247C189.221,400.455 187.962,397.768 186.418,395.357C184.496,392.368 182.318,389.588 180.152,386.822C177.943,384.001 175.755,381.19 173.882,378.167C172.283,375.587 170.906,372.856 169.949,369.83C169.206,367.494 168.36,364.689 168.042,361.931C167.821,360.009 167.858,358.108 168.344,356.391C168.459,355.985 169.163,354.211 169.976,353.21C170.551,352.501 171.231,352.207 171.813,352.405C171.812,351.132 171.85,349.859 171.921,348.59C171.939,348.261 171.899,346.391 172.12,345.347C172.248,344.744 172.545,344.382 172.809,344.304C173.037,344.237 173.25,344.293 173.424,344.5C173.511,344.603 173.596,344.792 173.648,345.018C173.723,345.351 173.748,345.79 173.755,345.859C173.829,346.547 173.91,347.234 174.002,347.92C174.094,348.604 174.197,349.287 174.314,349.968C174.64,351.856 175.056,353.67 175.639,355.424C176.217,357.167 176.962,358.851 177.946,360.494C181.622,366.63 186.179,372.518 189.778,378.856C190.972,380.96 192.061,383.113 192.98,385.34C192.95,385.158 192.923,384.975 192.898,384.791C192.656,383.01 192.619,381.103 192.593,379.285C192.317,377.921 191.996,376.574 191.638,375.236C191.082,373.153 190.438,371.092 189.743,369.023C187.838,363.368 185.492,357.752 183.948,351.971C182.909,348.079 182.23,344.111 182.297,340.003C182.32,338.464 182.412,336.858 182.699,335.303C182.893,334.246 183.178,333.212 183.591,332.237C183.84,331.647 184.174,331.03 184.626,330.547C184.958,330.194 185.352,329.913 185.82,329.751C186.531,329.506 187.214,329.568 187.846,329.815C188.709,330.153 189.474,330.855 190.057,331.552C191.083,332.778 191.818,334.189 192.346,335.682C192.866,337.151 193.185,338.702 193.385,340.233C193.617,341.999 193.694,343.777 193.676,345.564C193.885,342.779 194.095,339.964 194.549,337.213C195.016,334.386 195.736,331.624 196.995,329.033C197.462,328.064 198.048,327.182 198.694,326.341C200.143,324.453 201.905,322.784 203.248,320.805C203.324,320.692 203.399,320.579 203.472,320.465C203.723,319.245 203.927,318.017 204.054,316.787C204.285,314.548 204.258,312.3 203.792,310.078C203.631,309.313 203.379,308.65 203.077,308.039C202.268,306.404 201.117,305.125 200.264,303.404C200.231,303.336 200.21,303.264 200.201,303.193C200.063,303.17 199.88,303.141 199.813,303.132L198.589,302.954C197.92,302.847 197.246,302.721 196.58,302.564C195.905,302.405 195.238,302.215 194.592,301.981C192.721,301.305 191.056,300.228 189.582,298.916C188.132,297.626 186.867,296.11 185.774,294.535C184.752,293.067 184.016,291.507 183.455,289.89C181.265,283.577 181.857,276.365 178.28,270.52C177.567,269.363 176.708,268.482 175.738,267.768C174.225,266.654 172.45,265.942 170.552,265.216C169.577,264.845 168.334,264.317 167.47,263.523C167.452,263.528 167.433,263.533 167.413,263.537C167.253,263.571 166.556,263.464 166.283,263.381C165.957,263.282 165.643,263.133 165.353,262.946C165.073,262.766 164.813,262.553 164.584,262.321C163.906,261.635 163.584,260.743 163.538,259.81C163.518,259.392 163.553,258.967 163.633,258.552C163.107,258.451 162.431,258.184 162.215,258.114C161.078,257.743 160.048,257.228 159.247,256.499C158.41,255.737 157.813,254.748 157.6,253.442C157.343,251.865 157.673,250.33 158.369,248.927C159.367,246.915 161.117,245.177 162.86,244.007C165.707,242.09 168.964,241.302 172.287,241.256C175.55,241.212 178.879,241.883 181.932,242.913C184.682,243.829 187.452,245.013 190.03,246.506ZM163.894,257.395C163.893,257.395 163.893,257.395 163.893,257.395C163.893,257.395 163.893,257.395 163.894,257.395ZM164.029,257.295C164.033,257.284 164.038,257.274 164.043,257.263C164.871,255.439 166.306,254.04 168.032,253.003C170.511,251.513 173.59,250.769 176.227,250.555C178.845,250.333 181.418,250.657 183.897,251.391C187.514,252.463 190.928,254.426 193.965,256.938C199.024,261.123 203.035,266.819 205.163,272.367C205.191,272.44 205.205,272.515 205.206,272.589C205.254,272.616 205.302,272.642 205.35,272.667C205.473,272.733 205.596,272.798 205.721,272.861C205.646,271.605 205.346,270.356 204.933,269.13C204.272,267.168 203.325,265.264 202.509,263.479C201.53,261.343 200.526,259.149 199.329,257.084C198.538,255.721 197.664,254.414 196.658,253.218C194.75,250.951 192.393,249.067 189.819,247.52C187.229,245.962 184.42,244.744 181.634,243.801C178.678,242.813 175.459,242.16 172.303,242.22C169.174,242.28 166.111,243.043 163.445,244.868C162.117,245.78 160.783,247.051 159.857,248.528C158.963,249.954 158.45,251.576 158.743,253.248C158.921,254.26 159.391,255.025 160.048,255.608C160.736,256.218 161.622,256.631 162.591,256.933C162.807,257 163.927,256.936 164.029,257.295ZM206.857,271.221C206.874,270.935 206.886,270.647 206.893,270.36C206.909,269.783 206.91,269.206 206.902,268.634C206.875,266.987 206.643,265.352 206.23,263.761C205.85,262.297 205.318,260.871 204.686,259.499C203.753,259.524 202.538,259.133 201.502,258.479C201.448,258.445 201.394,258.41 201.342,258.375C202.15,259.89 202.887,261.442 203.609,262.967C204.468,264.778 205.459,266.712 206.161,268.707C206.452,269.536 206.693,270.375 206.857,271.221ZM199.308,254.95C199.362,254.714 199.459,254.496 199.595,254.315C199.926,253.874 200.46,253.606 201.168,253.791C201.48,253.872 201.784,254.028 202.067,254.23C202.434,254.493 202.767,254.829 203.04,255.127C203.225,255.328 203.401,255.536 203.57,255.75C203.737,255.964 203.897,256.184 204.049,256.409C204.296,256.775 204.527,257.152 204.745,257.536C204.896,257.804 205.042,258.075 205.18,258.349C205.281,258.451 205.35,258.585 205.369,258.736C206.11,260.265 206.719,261.867 207.172,263.508C207.631,265.171 207.928,266.876 207.998,268.602C208.024,269.189 208.04,269.781 208.042,270.374C208.042,270.449 208.042,270.525 208.042,270.6C208.158,270.263 208.264,269.92 208.359,269.574C208.543,268.902 208.686,268.221 208.778,267.545C208.909,266.563 208.905,265.592 208.827,264.627C208.653,262.461 208.155,260.325 208.146,258.138C208.07,257.987 208.051,257.806 208.107,257.632C208.12,257.591 208.137,257.552 208.157,257.516C208.179,256.714 208.336,255.066 208.99,254.143C209.378,253.597 209.922,253.274 210.654,253.328C211.349,253.38 211.896,253.822 212.22,254.41C212.53,254.972 212.612,255.668 212.439,256.245C212.224,256.963 211.661,257.642 210.96,258.082C210.4,258.432 209.755,258.619 209.128,258.583C209.204,260.934 209.786,263.23 209.881,265.575C209.909,266.269 209.9,266.966 209.823,267.672C209.747,268.396 209.617,269.129 209.445,269.852C209.272,270.574 209.055,271.285 208.803,271.968C208.696,272.257 208.579,272.546 208.441,272.823C208.343,273.019 208.233,273.209 208.11,273.391C208.093,273.416 207.995,273.607 207.898,273.718C207.904,273.72 207.911,273.722 207.917,273.723C207.928,273.704 207.94,273.684 207.953,273.666C208.057,273.52 208.212,273.431 208.377,273.407C208.346,273.182 209.143,273.024 209.214,272.984C209.745,272.689 210.264,272.357 210.763,271.997C211.265,271.633 211.747,271.243 212.202,270.835C213.485,269.676 214.69,268.361 215.725,266.922C216.577,265.738 217.312,264.473 217.909,263.169C216.983,262.597 216.491,261.698 216.377,260.707C216.262,259.715 216.524,258.633 217.088,257.767C217.404,257.279 217.888,256.986 218.351,256.952C218.873,256.913 219.408,257.143 219.697,257.828C219.969,258.473 220.033,259.181 219.96,259.896C219.86,260.872 219.511,261.863 219.165,262.685C219.158,262.701 219.152,262.717 219.146,262.732C219.143,262.824 219.121,262.917 219.079,263.005C219.046,263.072 219.004,263.131 218.955,263.182C218.301,264.675 217.462,266.116 216.508,267.477C215.45,268.987 214.248,270.399 212.943,271.635C212.529,272.031 212.091,272.413 211.637,272.775C211.788,272.747 211.989,272.755 212.186,272.775C212.523,272.672 212.86,272.557 213.189,272.428C213.876,272.158 214.535,271.826 215.112,271.394C215.949,270.76 216.662,270.015 217.306,269.211C218.887,267.242 220.106,264.961 221.92,263.197C222.466,262.652 223.51,261.727 224.56,261.291C225.451,260.921 226.344,260.909 227.051,261.508C227.539,261.922 227.688,262.462 227.629,263.007C227.552,263.71 227.068,264.427 226.514,264.818C225.857,265.282 224.96,265.595 224.057,265.664C223.149,265.734 222.241,265.543 221.535,265.055C220.291,266.564 219.286,268.281 218.078,269.823C217.392,270.699 216.646,271.524 215.757,272.227C215.697,272.275 215.636,272.322 215.574,272.368C215.756,272.319 215.937,272.267 216.118,272.212C217.198,271.885 218.252,271.469 219.242,271.022C220.939,270.254 222.56,269.354 224.228,268.539C224.954,268.184 225.688,267.844 226.442,267.538C228.779,266.588 231.22,265.772 233.711,265.115C233.722,265.088 233.734,265.061 233.749,265.035C234.67,263.407 236.019,262.152 237.595,261.114C240.975,258.888 245.422,257.682 248.567,255.698C248.888,255.492 249.206,255.28 249.51,255.051C249.807,254.828 250.091,254.59 250.352,254.326C251.243,253.417 251.49,252.53 251.287,251.704C250.956,250.358 249.556,249.215 248.108,248.412C247.526,248.09 246.913,247.845 246.283,247.651C245.641,247.454 244.981,247.312 244.316,247.196C243.607,247.072 242.885,246.968 242.159,246.905C241.445,246.843 240.728,246.821 240.017,246.856C239.532,246.88 238.978,247.111 238.481,247.192C238.424,247.201 238.367,247.209 238.311,247.214C238.345,248.081 238.097,249.088 237.356,250.249C235.926,252.49 232.521,255.387 225.306,259.02C224.971,259.184 224.567,259.045 224.403,258.711C224.239,258.376 224.377,257.971 224.712,257.807C230.11,255.238 233.356,253.065 235.212,251.22C236.829,249.612 237.357,248.302 237.316,247.226C237.27,246.03 236.535,245.162 236,244.554C235.357,243.83 234.492,243.275 233.553,242.889C232.597,242.495 231.564,242.277 230.602,242.225C228.825,242.137 227.112,242.506 225.501,243.16C223.87,243.823 222.344,244.781 220.955,245.851C220.495,246.206 220.038,246.566 219.59,246.937C219.147,247.304 218.714,247.683 218.294,248.077L217.534,248.845C217.474,248.916 217.364,249.147 217.264,249.207C217.157,249.44 216.913,249.593 216.643,249.573C216.62,249.571 216.598,249.568 216.577,249.565C216.57,251.685 216.353,253.809 215.962,255.883C215.888,256.248 215.531,256.485 215.166,256.411C214.801,256.337 214.565,255.98 214.639,255.615C215.287,252.622 215.571,249.512 215.329,246.454C215.087,243.401 214.325,240.403 212.928,237.633C212.149,236.131 211.102,234.675 209.822,233.488C208.562,232.32 207.076,231.417 205.417,230.98C204.613,230.771 203.746,230.736 202.896,230.85C202.049,230.963 201.221,231.229 200.492,231.625C200.301,231.728 200.117,231.846 199.945,231.981C199.784,232.106 199.637,232.248 199.51,232.407C199.47,232.457 199.24,232.882 199.13,233.041C199.081,233.112 199.027,233.168 198.972,233.211C198.99,233.233 199.008,233.255 199.026,233.277C201.078,235.731 202.381,238.636 203.108,241.702C203.831,244.751 203.98,247.96 203.702,251.045C203.665,251.415 203.333,251.686 202.962,251.648C202.592,251.611 202.321,251.279 202.359,250.909C202.692,247.963 202.63,244.886 201.997,241.953C201.367,239.034 200.175,236.258 198.271,233.897C197.479,232.924 196.248,231.69 194.883,231.051C194.023,230.648 193.11,230.484 192.239,230.834C191.594,231.095 191.099,231.568 190.714,232.128C190.305,232.721 190.02,233.414 189.814,234.082C189.33,235.659 189.197,237.373 189.323,239.076C189.449,240.79 189.84,242.491 190.393,244.032C190.587,244.572 190.875,245.474 191.258,246.247C191.48,246.694 191.724,247.102 192.022,247.31C192.223,247.454 192.314,247.694 192.278,247.923C194.202,249.246 195.968,250.771 197.473,252.525C198.133,253.293 198.741,254.106 199.308,254.95ZM166.84,263.331C166.858,263.348 166.879,263.364 166.903,263.38C166.88,263.365 166.859,263.349 166.84,263.331ZM166.515,262.145C166.4,261.826 166.339,261.481 166.343,261.107C166.363,259.271 167.573,258.19 169.223,257.621C171.359,256.886 174.251,257.045 175.776,257.343C178.422,257.86 180.997,259.025 183.346,260.561C185.675,262.085 187.782,263.977 189.512,265.966C190.273,266.84 191.037,267.75 191.674,268.732C191.911,269.097 192.131,269.472 192.327,269.859C192.638,269.501 193.044,269.187 193.561,268.93C194.221,268.6 194.953,268.455 195.7,268.442C196.765,268.424 197.861,268.676 198.805,269.018C200.452,269.613 201.903,270.569 203.372,271.493C201.292,266.52 197.741,261.507 193.298,257.735C190.397,255.272 187.119,253.332 183.63,252.288C181.267,251.582 178.807,251.295 176.31,251.516C173.819,251.746 170.909,252.466 168.582,253.906C167.063,254.846 165.796,256.097 165.086,257.727C164.819,258.34 164.67,259.055 164.715,259.743C164.756,260.381 164.971,260.995 165.443,261.457C165.613,261.623 165.805,261.775 166.011,261.903C166.171,262.001 166.34,262.084 166.515,262.145ZM198.316,301.653C197.269,300.755 196.267,299.662 195.473,298.447C194.651,297.187 194.052,295.798 193.846,294.363C193.731,293.565 193.724,292.766 193.781,291.967C193.907,290.188 194.353,288.41 194.556,286.655C194.682,285.558 194.695,284.474 194.591,283.401C194.487,282.328 194.267,281.267 193.927,280.216C193.302,278.289 191.321,274.812 191.464,272.161C191.478,271.917 191.507,271.678 191.556,271.448C191.539,271.418 191.525,271.387 191.513,271.354C191.27,270.683 190.938,270.052 190.556,269.449C189.962,268.512 189.247,267.642 188.536,266.805C186.901,264.879 184.905,263.04 182.688,261.554C180.481,260.075 178.058,258.944 175.558,258.428C174.165,258.141 171.52,257.958 169.559,258.612C168.335,259.021 167.378,259.765 167.35,261.123C167.338,261.794 167.653,262.326 168.106,262.761C168.874,263.497 170.016,263.969 170.9,264.313C172.878,265.078 174.722,265.843 176.298,267.01C177.358,267.795 178.299,268.76 179.079,270.029C182.719,275.911 182.18,283.189 184.435,289.546C184.975,291.069 185.683,292.536 186.659,293.914C187.718,295.407 188.938,296.844 190.334,298.062C191.709,299.261 193.257,300.245 194.993,300.851C195.598,301.063 196.222,301.232 196.853,301.373C197.338,301.482 197.828,301.573 198.316,301.653ZM194.207,351.555C194.704,349.761 195.259,347.981 195.842,346.208C197.1,342.347 198.372,338.492 199.571,334.614C200.37,332.031 201.131,329.437 201.86,326.832C202.205,325.586 202.557,324.32 202.879,323.039C201.763,324.36 200.54,325.596 199.477,326.949C198.864,327.73 198.307,328.551 197.861,329.455C196.636,331.959 195.922,334.628 195.477,337.366C194.802,341.512 194.732,345.811 194.354,349.927C194.305,350.469 194.256,351.012 194.207,351.555ZM192.383,373.744C192.376,373.548 192.371,373.351 192.366,373.155C191.486,370.166 191.189,367.133 191.198,364.074C191.22,356.204 193.298,348.172 192.344,340.365C192.165,338.903 191.875,337.422 191.388,336.017C190.909,334.633 190.24,333.323 189.298,332.183C188.895,331.696 188.395,331.197 187.823,330.879C187.31,330.595 186.737,330.458 186.131,330.663C185.729,330.799 185.412,331.074 185.151,331.402C184.862,331.767 184.642,332.198 184.467,332.609C184.078,333.52 183.81,334.487 183.626,335.475C183.346,336.977 183.258,338.529 183.235,340.018C183.177,344.036 183.846,347.917 184.879,351.721C186.44,357.475 188.825,363.054 190.758,368.678C191.34,370.366 191.888,372.05 192.383,373.744ZM171.826,353.628C171.695,353.666 171.55,353.661 171.415,353.606C171.404,353.621 171.359,353.616 171.335,353.63C171.289,353.657 171.242,353.691 171.195,353.731C170.931,353.957 170.676,354.318 170.443,354.705C169.951,355.521 169.567,356.459 169.488,356.724C169.018,358.295 168.97,360.042 169.151,361.81C169.426,364.502 170.226,367.242 170.923,369.526C171.831,372.479 173.136,375.155 174.687,377.67C178.383,383.661 183.394,388.768 187.326,394.766C188.952,397.227 190.288,399.977 191.339,402.838C191.893,404.346 192.368,405.884 192.763,407.428C192.796,407.259 192.828,407.092 192.86,406.925C192.867,405.576 192.758,404.266 192.536,402.974C192.255,401.333 191.792,399.722 191.155,398.102C187.535,388.922 180.962,381.252 176.556,372.583C174.643,368.819 173.129,364.871 172.43,360.533C172.11,358.56 171.929,356.567 171.854,354.569C171.842,354.256 171.833,353.942 171.826,353.628ZM192.801,399.228C192.812,398.296 192.867,397.375 192.998,396.473C193.172,395.285 193.478,394.128 193.99,393.019C193.943,392.948 193.908,392.867 193.89,392.779C192.944,388.01 191.035,383.638 188.706,379.459C185.164,373.102 180.656,367.191 177.031,361.037C176.019,359.32 175.256,357.562 174.665,355.744C174.078,353.939 173.66,352.075 173.336,350.134C173.22,349.44 173.119,348.745 173.029,348.048C172.983,347.692 172.94,347.335 172.899,346.977C172.866,347.734 172.881,348.457 172.87,348.645C172.756,350.603 172.718,352.571 172.79,354.534C172.861,356.494 173.043,358.448 173.357,360.382C174.052,364.617 175.538,368.472 177.423,372.14C181.886,380.824 188.537,388.481 192.227,397.675C192.436,398.193 192.627,398.71 192.801,399.228ZM207.353,384.902C205.244,385.788 203.051,386.602 201.031,387.68C199.393,388.555 197.872,389.606 196.614,391.024C196.138,391.561 195.745,392.115 195.421,392.685C195.265,396.286 195.12,400.094 194.514,404.402C197.658,398.061 202.56,391.495 207.353,384.902ZM223.864,345.066C223.848,345.825 223.801,346.51 223.803,346.709C223.825,349.087 223.674,351.456 223.377,353.808C223.081,356.156 222.639,358.488 222.074,360.793C221.196,364.39 219.542,368.059 217.444,371.766C215.456,375.277 213.061,378.821 210.552,382.366C213.178,381.035 215.674,379.466 217.863,377.577C220.6,375.215 222.855,372.354 224.305,368.862C225.524,365.913 226.244,362.726 226.495,359.497C226.745,356.271 226.526,353.003 225.879,349.889C225.71,349.079 225.48,348.264 225.173,347.48C224.872,346.71 224.496,345.97 224.031,345.296C224.007,345.262 223.946,345.175 223.864,345.066ZM195.565,389.71C195.629,389.938 195.686,390.167 195.725,390.378C195.75,390.35 195.775,390.322 195.8,390.295C197.158,388.794 198.79,387.683 200.548,386.765C203.088,385.438 205.892,384.517 208.471,383.361C211.396,379.312 214.226,375.257 216.529,371.244C218.598,367.637 220.234,364.063 221.11,360.555C221.674,358.288 222.119,355.996 222.418,353.686C222.717,351.377 222.871,349.051 222.855,346.717C222.853,346.481 222.925,345.548 222.928,344.633C222.928,344.519 222.927,344.405 222.925,344.293C222.893,344.258 222.864,344.219 222.839,344.176C222.741,344.004 222.732,343.805 222.799,343.634C222.512,344.092 222.22,344.63 222.163,344.715C221.457,345.784 220.728,346.836 219.967,347.864C219.205,348.894 218.412,349.902 217.579,350.879C213.322,355.882 208.401,360.402 204.333,365.523C201.655,368.894 199.349,372.527 197.86,376.737C197.036,379.073 196.516,381.309 196.173,383.524C195.853,385.583 195.684,387.625 195.565,389.71ZM193.605,372.625C193.686,372.896 193.771,373.167 193.862,373.437C193.945,372.977 194.035,372.518 194.133,372.061C194.805,368.931 195.837,365.877 197.189,362.975C198.656,359.825 200.528,357.04 202.638,354.453C205.787,350.591 209.467,347.17 213.109,343.624C215.43,341.362 217.672,338.945 219.714,336.374C221.751,333.809 223.589,331.091 225.113,328.226C225.481,327.533 225.829,326.83 226.147,326.114C226.355,325.645 226.551,325.169 226.73,324.687C226.627,324.821 226.556,324.914 226.537,324.937C226.017,325.584 225.482,326.216 224.919,326.823C224.351,327.434 223.755,328.018 223.118,328.563C222.053,329.476 220.917,330.254 219.743,330.962C217.044,332.59 214.138,333.84 211.429,335.513C208.811,337.131 206.549,339.192 204.588,341.52C202.619,343.858 200.954,346.467 199.535,349.173C197.328,353.384 195.694,357.588 194.705,361.922C193.915,365.384 193.537,368.929 193.605,372.625ZM215.17,296.437C215.176,296.431 215.183,296.425 215.189,296.419C216.398,295.201 217.527,293.901 218.583,292.567C220.405,290.263 221.867,287.664 223.553,285.251C224.295,284.189 225.079,283.163 225.954,282.211C228.077,279.895 230.71,277.982 233.567,276.467C236.407,274.962 239.469,273.85 242.469,273.129C244.523,272.633 247.541,272.008 250.137,272.358C251.703,272.57 253.118,273.133 254.121,274.248C254.168,274.204 254.222,274.166 254.282,274.137C254.616,273.972 255.022,274.109 255.186,274.443C255.717,275.538 256.883,276.022 257.971,275.927C259.053,275.833 260.074,275.163 260.322,273.901C260.474,273.133 260.355,272.336 260.097,271.577C259.824,270.772 259.395,270.009 258.939,269.359C257.546,267.377 255.55,266.102 253.335,265.324C251.076,264.53 248.591,264.25 246.264,264.267C242.976,264.308 239.633,264.72 236.356,265.45C235.85,265.563 235.345,265.683 234.843,265.811C234.664,266.01 234.379,266.086 234.123,265.999C231.621,266.67 229.175,267.517 226.835,268.492C226.107,268.796 225.397,269.132 224.697,269.485C223.029,270.325 221.412,271.254 219.715,272.05C218.688,272.532 217.592,272.981 216.469,273.339C215.329,273.703 214.162,273.973 213.01,274.091C212.952,274.097 212.832,274.114 212.678,274.133C214.135,274.158 215.6,274.212 216.913,274.584C218.209,274.952 219.364,275.613 220.253,276.794C222.25,279.445 222.384,282.393 221.569,285.31C220.422,289.414 217.359,293.46 215.17,296.437ZM204.484,273.277C204.277,273.262 204.083,273.151 203.966,272.973C202.169,271.892 200.476,270.624 198.485,269.901C197.779,269.645 196.979,269.441 196.179,269.391C195.415,269.343 194.651,269.433 193.979,269.767C193.409,270.052 193.021,270.428 192.772,270.867C192.775,270.874 192.778,270.881 192.78,270.888C192.898,271.207 192.758,271.559 192.467,271.716C192.371,272.208 192.384,272.746 192.466,273.302C192.811,275.65 194.322,278.325 194.844,279.917C195.211,281.034 195.45,282.163 195.566,283.304C195.681,284.445 195.673,285.599 195.544,286.766C195.379,288.264 195.034,289.78 194.867,291.298C194.76,292.27 194.726,293.243 194.872,294.212C195.065,295.498 195.617,296.738 196.362,297.863C197.116,299.002 198.07,300.024 199.063,300.858C200.305,301.9 201.402,301.997 202.365,301.522C203.941,300.744 205.142,298.652 206.011,296.9C207.858,293.167 208.767,288.973 210.324,285.102C211.015,283.384 211.831,281.728 212.899,280.198C213.566,279.242 214.682,277.865 215.962,276.963C216.58,276.527 217.237,276.205 217.903,276.061C217.505,275.84 217.081,275.673 216.638,275.545C213.929,274.763 210.556,275.354 207.966,274.728C206.866,274.463 205.86,274.025 204.898,273.506C204.759,273.431 204.622,273.355 204.484,273.277ZM219.324,277.255C219.199,277.329 219.049,277.363 218.894,277.343C218.155,277.243 217.415,277.576 216.726,278.055C215.571,278.857 214.567,280.092 213.961,280.946C212.938,282.388 212.155,283.952 211.488,285.576C209.89,289.46 208.935,293.674 207.045,297.417C206.096,299.301 204.74,301.486 203.06,302.418C203.364,302.453 203.669,302.476 203.971,302.492C205.276,302.562 206.419,302.358 207.477,301.922C208.555,301.477 209.544,300.796 210.528,299.934C211.231,299.318 211.878,298.655 212.489,297.96C213.106,297.257 213.686,296.52 214.249,295.764C216.391,292.89 219.415,288.998 220.55,285.023C221.293,282.42 221.212,279.781 219.439,277.404C219.401,277.353 219.363,277.304 219.324,277.255ZM214.253,304.271C214.425,304.307 214.599,304.337 214.774,304.361C215.567,304.471 216.379,304.47 217.175,304.443C219.71,304.356 221.808,303.629 223.717,302.556C226.706,300.875 229.241,298.375 232.238,296.156C233.207,295.429 234.21,294.756 235.226,294.105C237.576,292.599 240.015,291.234 242.383,289.75C243.475,289.061 244.526,288.349 245.493,287.544C246.442,286.753 247.309,285.87 248.054,284.83C248.31,284.472 248.56,284.108 248.792,283.734C249.017,283.37 249.223,282.995 249.401,282.605L249.592,282.066C248.268,282.199 246.928,282.263 245.667,282.467C243.678,282.79 241.692,283.269 239.77,283.93C237.855,284.588 236.006,285.426 234.282,286.466C232.357,287.627 230.695,289.036 229.156,290.562C225.445,294.243 222.431,298.589 218.263,301.874C217.048,302.832 215.685,303.703 214.253,304.271ZM249.888,281.061C250.091,280.722 250.446,280.785 250.704,280.957C250.745,280.951 250.786,280.945 250.827,280.938C251.559,280.825 252.276,280.666 252.957,280.418C253.974,280.048 254.457,279.253 254.566,278.355C254.682,277.406 254.401,276.35 253.892,275.506C253.052,274.12 251.616,273.503 250.012,273.289C247.533,272.957 244.654,273.578 242.694,274.056C239.774,274.77 236.795,275.865 234.035,277.344C231.289,278.817 228.76,280.672 226.726,282.915C225.889,283.838 225.14,284.833 224.432,285.861C222.75,288.304 221.295,290.933 219.477,293.268C218.405,294.644 217.257,295.986 216.027,297.245C214.79,298.511 213.469,299.693 212.058,300.744C211.621,301.07 211.179,301.386 210.731,301.694C210.283,302.001 209.83,302.301 209.368,302.592L208.558,303.069C210.011,303.753 211.502,303.745 212.936,303.345C214.567,302.89 216.124,301.94 217.49,300.883C221.647,297.665 224.664,293.38 228.369,289.762C229.982,288.188 231.72,286.737 233.73,285.544C235.525,284.479 237.449,283.623 239.438,282.954C241.419,282.288 243.464,281.806 245.511,281.487C246.916,281.267 248.418,281.221 249.888,281.061ZM250.305,282.108C250.218,282.094 250.135,282.062 250.062,282.016C250.053,282.017 250.044,282.018 250.035,282.019C250.125,282.077 250.222,282.1 250.305,282.108ZM217.072,248.438C216.997,248.371 216.891,248.321 216.737,248.312C216.863,248.321 216.978,248.367 217.072,248.438ZM198.724,232.126C198.724,232.126 198.724,232.126 198.724,232.126C198.724,232.126 198.724,232.126 198.724,232.126ZM203.973,258.111C203.954,258.079 203.936,258.046 203.917,258.014C203.706,257.655 203.48,257.306 203.241,256.965C203.099,256.763 202.949,256.566 202.792,256.374C202.636,256.184 202.471,256 202.3,255.823C202.101,255.617 201.867,255.388 201.61,255.194C201.392,255.029 201.157,254.89 200.912,254.833C200.721,254.789 200.574,254.845 200.489,254.966C200.375,255.126 200.359,255.359 200.415,255.58C200.598,256.291 201.325,256.935 202.148,257.415C202.736,257.758 203.387,258.012 203.973,258.111ZM222.443,264.044C222.88,264.32 223.432,264.417 223.982,264.394C224.659,264.366 225.341,264.164 225.845,263.834C226.109,263.661 226.356,263.365 226.462,263.043C226.542,262.799 226.544,262.533 226.327,262.338C225.946,261.996 225.445,262.067 224.947,262.259C224.015,262.618 223.088,263.424 222.596,263.892C222.545,263.942 222.493,263.993 222.443,264.044ZM208.834,273.517C208.835,273.517 208.835,273.518 208.835,273.518C208.835,273.518 208.835,273.517 208.834,273.517ZM218.43,261.911C218.667,261.259 218.882,260.527 218.935,259.806C218.975,259.27 218.922,258.741 218.704,258.265C218.641,258.129 218.556,258.052 218.451,258.063C218.298,258.079 218.162,258.21 218.062,258.375C217.675,259.023 217.506,259.819 217.617,260.54C217.7,261.082 217.96,261.577 218.43,261.911ZM209.152,257.244C209.535,257.307 209.944,257.191 210.3,256.986C210.753,256.725 211.141,256.325 211.294,255.878C211.393,255.589 211.353,255.236 211.206,254.947C211.074,254.685 210.859,254.459 210.555,254.427C210.115,254.381 209.849,254.694 209.655,255.081C209.325,255.742 209.201,256.632 209.152,257.244Z"></path>
  </g>
</svg>
